<svg xmlns="http://www.w3.org/2000/svg" viewBox="0 0 900 580" width="900" height="580">
  <defs>
    <linearGradient id="bg3" x1="0%" y1="0%" x2="0%" y2="100%"><stop offset="0%" stop-color="#0F172A"/><stop offset="100%" stop-color="#1E293B"/></linearGradient>
    <linearGradient id="aG" x1="0%" y1="0%" x2="100%" y2="0%"><stop offset="0%" stop-color="#3B82F6"/><stop offset="100%" stop-color="#8B5CF6"/></linearGradient>
  </defs>
  <rect width="900" height="580" fill="url(#bg3)"/>
  <text x="450" y="44" font-family="system-ui,sans-serif" font-size="24" font-weight="bold" fill="#FFF" text-anchor="middle">🧭 界面预览 UI Showcase</text>
  <rect x="450" y="56" width="60" height="3" rx="1.5" fill="url(#aG)"/>

  <!-- Row 1 -->
  <g transform="translate(20, 75)">
    <rect width="420" height="230" rx="16" fill="#1E293B" stroke="#334155" stroke-width="1"/>
    <rect x="0" y="0" width="420" height="38" rx="16" fill="#1E293B"/>
    <rect x="0" y="20" width="420" height="18" fill="#1E293B"/>
    <text x="210" y="24" font-family="system-ui,sans-serif" font-size="13" fill="#60A5FA" text-anchor="middle">🏠 首页 Home</text>
    <text x="360" y="24" font-family="system-ui,sans-serif" font-size="10" fill="#10B981">📶 · 🔋 92%</text>
    <rect x="16" y="50" width="388" height="52" rx="14" fill="#0F172A" stroke="#334155" stroke-width="0.5"/>
    <text x="38" y="72" font-family="system-ui,sans-serif" font-size="18">🎓</text>
    <text x="66" y="72" font-family="system-ui,sans-serif" font-size="13" fill="#FFF" font-weight="bold">欢迎回来，小礼</text>
    <text x="66" y="90" font-family="system-ui,sans-serif" font-size="10" fill="#94A3B8">让学习像游戏一样有趣</text>
    <text x="340" y="72" font-family="system-ui,sans-serif" font-size="11" fill="#F59E0B">Lv.3 680/1000</text>
    <rect x="290" y="82" width="100" height="6" rx="3" fill="#334155"/>
    <rect x="290" y="82" width="68" height="6" rx="3" fill="#F59E0B"/>
    <!-- 4 cards -->
    <g transform="translate(16, 114)"><rect width="90" height="100" rx="12" fill="#0F172A" stroke="#334155" stroke-width="0.5"/><text x="45" y="40" font-family="system-ui,sans-serif" font-size="24" text-anchor="middle">🤖</text><text x="45" y="64" font-family="system-ui,sans-serif" font-size="11" fill="#CBD5E1" text-anchor="middle">AI老师</text></g>
    <g transform="translate(114, 114)"><rect width="90" height="100" rx="12" fill="#0F172A" stroke="#334155" stroke-width="0.5"/><text x="45" y="40" font-family="system-ui,sans-serif" font-size="24" text-anchor="middle">📷</text><text x="45" y="64" font-family="system-ui,sans-serif" font-size="11" fill="#CBD5E1" text-anchor="middle">拍照解题</text></g>
    <g transform="translate(212, 114)"><rect width="90" height="100" rx="12" fill="#0F172A" stroke="#334155" stroke-width="0.5"/><text x="45" y="40" font-family="system-ui,sans-serif" font-size="24" text-anchor="middle">🎮</text><text x="45" y="64" font-family="system-ui,sans-serif" font-size="11" fill="#CBD5E1" text-anchor="middle">趣味游戏</text></g>
    <g transform="translate(310, 114)"><rect width="90" height="100" rx="12" fill="#0F172A" stroke="#334155" stroke-width="0.5"/><text x="45" y="40" font-family="system-ui,sans-serif" font-size="24" text-anchor="middle">🏆</text><text x="45" y="64" font-family="system-ui,sans-serif" font-size="11" fill="#CBD5E1" text-anchor="middle">成长中心</text></g>
  </g>

  <!-- Row 1 right - AI -->
  <g transform="translate(460, 75)">
    <rect width="420" height="230" rx="16" fill="#1E293B" stroke="#334155" stroke-width="1"/>
    <rect x="0" y="0" width="420" height="38" rx="16" fill="#1E293B"/>
    <rect x="0" y="20" width="420" height="18" fill="#1E293B"/>
    <text x="210" y="24" font-family="system-ui,sans-serif" font-size="13" fill="#60A5FA" text-anchor="middle">🤖 AI 老师 AI Teacher</text>
    <text x="360" y="24" font-family="system-ui,sans-serif" font-size="10" fill="#10B981">● 在线</text>
    <!-- Subject pills -->
    <rect x="16" y="48" width="60" height="24" rx="12" fill="#2563EB"/><text x="46" y="64" font-family="system-ui,sans-serif" font-size="11" fill="#FFF" text-anchor="middle">数学</text>
    <rect x="82" y="48" width="60" height="24" rx="12" fill="#334155"/><text x="112" y="64" font-family="system-ui,sans-serif" font-size="11" fill="#94A3B8" text-anchor="middle">英语</text>
    <rect x="148" y="48" width="60" height="24" rx="12" fill="#334155"/><text x="178" y="64" font-family="system-ui,sans-serif" font-size="11" fill="#94A3B8" text-anchor="middle">语文</text>
    <!-- Chat -->
    <rect x="16" y="82" width="388" height="136" rx="12" fill="#0F172A"/>
    <rect x="28" y="94" width="200" height="36" rx="14" fill="#334155"/><text x="46" y="110" font-family="system-ui,sans-serif" font-size="11" fill="#FFF">🤖 3 × 7 等于多少？</text>
    <rect x="200" y="138" width="180" height="36" rx="14" fill="#2563EB"/><text x="222" y="154" font-family="system-ui,sans-serif" font-size="11" fill="#FFF">3 × 7 = 21 ✨</text>
    <rect x="28" y="182" width="200" height="24" rx="12" fill="#334155"/><text x="46" y="198" font-family="system-ui,sans-serif" font-size="10" fill="#94A3B8">正在输入...</text>
  </g>

  <!-- Row 2 left - OCR -->
  <g transform="translate(20, 320)">
    <rect width="420" height="230" rx="16" fill="#1E293B" stroke="#334155" stroke-width="1"/>
    <rect x="0" y="0" width="420" height="38" rx="16" fill="#1E293B"/>
    <rect x="0" y="20" width="420" height="18" fill="#1E293B"/>
    <text x="210" y="24" font-family="system-ui,sans-serif" font-size="13" fill="#60A5FA" text-anchor="middle">📷 AI 拍照解题 OCR Solver</text>
    <!-- Split layout -->
    <rect x="16" y="50" width="180" height="168" rx="12" fill="#0F172A" stroke="#334155" stroke-width="0.5"/>
    <rect x="26" y="60" width="160" height="100" rx="8" fill="#334155"/>
    <text x="106" y="110" font-family="system-ui,sans-serif" font-size="20" text-anchor="middle">📷</text>
    <rect x="26" y="172" width="72" height="28" rx="8" fill="#2563EB"/><text x="62" y="191" font-family="system-ui,sans-serif" font-size="10" fill="#FFF" text-anchor="middle">拍照识别</text>
    <rect x="106" y="172" width="72" height="28" rx="8" fill="#334155"/><text x="142" y="191" font-family="system-ui,sans-serif" font-size="10" fill="#94A3B8" text-anchor="middle">导入图片</text>
    <!-- Result -->
    <rect x="208" y="50" width="196" height="168" rx="12" fill="#0F172A"/>
    <text x="220" y="80" font-family="system-ui,sans-serif" font-size="11" fill="#FFF">📝 识别结果</text>
    <text x="220" y="106" font-family="system-ui,sans-serif" font-size="12" fill="#E2E8F0">x² + 2x + 1 = 0</text>
    <text x="220" y="124" font-family="system-ui,sans-serif" font-size="10" fill="#94A3B8">求 x 的值</text>
    <line x1="220" y1="134" x2="390" y2="134" stroke="#334155" stroke-width="0.5"/>
    <text x="220" y="152" font-family="system-ui,sans-serif" font-size="11" fill="#FFF">🤖 AI 解答</text>
    <text x="220" y="172" font-family="system-ui,sans-serif" font-size="11" fill="#10B981">(x+1)² = 0 → x = -1</text>
    <rect x="220" y="186" width="50" height="18" rx="6" fill="#10B981" opacity="0.2"/>
    <text x="245" y="199" font-family="system-ui,sans-serif" font-size="9" fill="#10B981" text-anchor="middle">完全平方</text>
  </g>

  <!-- Row 2 right - Game -->
  <g transform="translate(460, 320)">
    <rect width="420" height="230" rx="16" fill="#1E293B" stroke="#334155" stroke-width="1"/>
    <rect x="0" y="0" width="420" height="38" rx="16" fill="#1E293B"/>
    <rect x="0" y="20" width="420" height="18" fill="#1E293B"/>
    <text x="210" y="24" font-family="system-ui,sans-serif" font-size="13" fill="#60A5FA" text-anchor="middle">🎮 游戏中心 Game Center</text>
    <!-- NES game list -->
    <rect x="16" y="50" width="180" height="168" rx="12" fill="#0F172A" stroke="#334155" stroke-width="0.5"/>
    <text x="28" y="76" font-family="system-ui,sans-serif" font-size="12" fill="#FFF">🎮 经典小霸王</text>
    <rect x="26" y="86" width="160" height="1" fill="#334155"/>
    <text x="34" y="106" font-family="system-ui,sans-serif" font-size="11" fill="#CBD5E1">🎯 超级马里奥</text>
    <text x="34" y="126" font-family="system-ui,sans-serif" font-size="11" fill="#CBD5E1">🏟 坦克大战</text>
    <text x="34" y="146" font-family="system-ui,sans-serif" font-size="11" fill="#CBD5E1">🐍 俄罗斯方块</text>
    <text x="34" y="166" font-family="system-ui,sans-serif" font-size="11" fill="#CBD5E1">🗡 魂斗罗</text>
    <text x="34" y="186" font-family="system-ui,sans-serif" font-size="11" fill="#CBD5E1">🐱 猫里奥</text>
    <text x="34" y="206" font-family="system-ui,sans-serif" font-size="9" fill="#64748B">共 20+ 款 ROM</text>
    <!-- 2048 game -->
    <rect x="208" y="50" width="196" height="168" rx="12" fill="#0F172A"/>
    <text x="220" y="76" font-family="system-ui,sans-serif" font-size="12" fill="#FFF">🧮 数学2048</text>
    <rect x="224" y="88" width="36" height="36" rx="6" fill="#2563EB"/><text x="242" y="112" font-family="system-ui,sans-serif" font-size="14" fill="#FFF" text-anchor="middle">2</text>
    <rect x="264" y="88" width="36" height="36" rx="6" fill="#2563EB"/><text x="282" y="112" font-family="system-ui,sans-serif" font-size="14" fill="#FFF" text-anchor="middle">4</text>
    <rect x="304" y="88" width="36" height="36" rx="6" fill="#F59E0B"/><text x="322" y="112" font-family="system-ui,sans-serif" font-size="14" fill="#FFF" text-anchor="middle">8</text>
    <rect x="344" y="88" width="36" height="36" rx="6" fill="#F59E0B"/><text x="362" y="112" font-family="system-ui,sans-serif" font-size="14" fill="#FFF" text-anchor="middle">16</text>
    <rect x="224" y="128" width="36" height="36" rx="6" fill="#EF4444"/><text x="242" y="152" font-family="system-ui,sans-serif" font-size="14" fill="#FFF" text-anchor="middle">32</text>
    <rect x="264" y="128" width="36" height="36" rx="6" fill="#EF4444"/><text x="282" y="152" font-family="system-ui,sans-serif" font-size="14" fill="#FFF" text-anchor="middle">64</text>
    <rect x="304" y="128" width="36" height="36" rx="6" fill="#10B981"/><text x="322" y="152" font-family="system-ui,sans-serif" font-size="14" fill="#FFF" text-anchor="middle">128</text>
    <rect x="344" y="128" width="36" height="36" rx="6" fill="#10B981"/><text x="362" y="152" font-family="system-ui,sans-serif" font-size="14" fill="#FFF" text-anchor="middle">256</text>
  </g>
  <text x="450" y="572" font-family="system-ui,sans-serif" font-size="11" fill="#64748B" text-anchor="middle">界面基于 LVGL 9.x 开发 · 1024×600 MIPI-DSI · 暗色主题设计</text>
</svg>
